<svg fill="none" xmlns="http://www.w3.org/2000/svg" viewBox="0 0 40 40">
  <path d="M20 40a20 20 0 1 0 0-40 20 20 0 0 0 0 40Z" fill="url(#a)"/>
  <path d="M34.32 20.24h-3.53c0-7.18-5.84-13-13.05-13A13.03 13.03 0 0 0 4.68 19.97c-.14 7.3 6.73 13.64 14.06 13.64h.92c6.46 0 15.12-5.04 16.47-11.18a1.83 1.83 0 0 0-1.81-2.2Zm-21.82.32a1.75 1.75 0 0 1-3.5 0v-2.82a1.75 1.75 0 0 1 3.5 0v2.82Zm6.08 0a1.75 1.75 0 0 1-3.5 0v-2.82a1.75 1.75 0 0 1 3.5 0v2.82Z" fill="url(#b)"/>
  <defs>
    <linearGradient id="a" x1="20" y1="0" x2="20" y2="40" gradientUnits="userSpaceOnUse">
      <stop stop-color="#534BB1"/>
      <stop offset="1" stop-color="#551BF9"/>
    </linearGradient>
    <linearGradient id="b" x1="20.43" y1="7.23" x2="20.43" y2="33.62" gradientUnits="userSpaceOnUse">
      <stop stop-color="#fff"/>
      <stop offset="1" stop-color="#fff" stop-opacity=".82"/>
    </linearGradient>
  </defs>
</svg>
